<svg width="311" height="20" viewBox="0 0 311 20" fill="none" xmlns="http://www.w3.org/2000/svg">
<path d="M3.77131 17L4.85085 13.6832H10.0994L11.179 17H14.4744L9.46023 2.45455H5.49716L0.475852 17H3.77131ZM5.6321 11.2827L7.42188 5.77841H7.53551L9.32528 11.2827H5.6321ZM85.6908 6.63778H88.6382C88.5956 4.04545 86.4649 2.25568 83.2263 2.25568C80.0374 2.25568 77.7007 4.01705 77.7149 6.65909C77.7078 8.80398 79.2206 10.0327 81.678 10.6222L83.2618 11.0199C84.8456 11.4034 85.7263 11.858 85.7334 12.8381C85.7263 13.9034 84.7178 14.6278 83.1553 14.6278C81.5572 14.6278 80.4067 13.8892 80.3072 12.4332H77.3314C77.4095 15.5795 79.6609 17.206 83.1908 17.206C86.7419 17.206 88.83 15.5085 88.8371 12.8452C88.83 10.4233 87.0047 9.13778 84.4763 8.5696L83.1695 8.2571C81.9053 7.96591 80.847 7.49716 80.8683 6.45312C80.8683 5.51562 81.6993 4.8267 83.205 4.8267C84.6751 4.8267 85.5771 5.49432 85.6908 6.63778ZM215.32 7.15625H218.445C218.047 4.27983 215.512 2.25568 212.223 2.25568C208.381 2.25568 205.419 5.02557 205.419 9.74148C205.419 14.3438 208.189 17.1989 212.287 17.1989C215.959 17.1989 218.58 14.8764 218.58 11.0483V9.21591H212.493V11.5312H215.618C215.576 13.3352 214.347 14.4787 212.302 14.4787C209.993 14.4787 208.537 12.7528 208.537 9.71307C208.537 6.6875 210.05 4.97585 212.273 4.97585C213.857 4.97585 214.929 5.79261 215.32 7.15625Z" fill="#202020"/>
<path d="M23.7158 6.63778H26.6632C26.6206 4.04545 24.4899 2.25568 21.2513 2.25568C18.0624 2.25568 15.7257 4.01705 15.7399 6.65909C15.7328 8.80398 17.2456 10.0327 19.703 10.6222L21.2868 11.0199C22.8706 11.4034 23.7513 11.858 23.7584 12.8381C23.7513 13.9034 22.7428 14.6278 21.1803 14.6278C19.5822 14.6278 18.4317 13.8892 18.3322 12.4332H15.3564C15.4345 15.5795 17.6859 17.206 21.2158 17.206C24.7669 17.206 26.855 15.5085 26.8621 12.8452C26.855 10.4233 25.0297 9.13778 22.5013 8.5696L21.1945 8.2571C19.9303 7.96591 18.872 7.49716 18.8933 6.45312C18.8933 5.51562 19.7243 4.8267 21.23 4.8267C22.7001 4.8267 23.6021 5.49432 23.7158 6.63778ZM27.9766 4.99006H32.4298V17H35.4695V4.99006H39.9227V2.45455H27.9766V4.99006ZM41.49 17H44.5653V11.8438H46.8096L49.5653 17H52.9602L49.8707 11.3466C51.5255 10.6364 52.4417 9.1946 52.4417 7.20597C52.4417 4.31534 50.5312 2.45455 47.2286 2.45455H41.49V17ZM44.5653 9.37216V4.96875H46.6391C48.4147 4.96875 49.2741 5.7571 49.2741 7.20597C49.2741 8.64773 48.4147 9.37216 46.6533 9.37216H44.5653ZM57.2903 2.45455H54.215V17H57.2903V2.45455ZM64.5767 17C69.0085 17 71.6932 14.2585 71.6932 9.71307C71.6932 5.18182 69.0085 2.45455 64.6193 2.45455H59.4205V17H64.5767ZM62.4957 14.3651V5.08949H64.456C67.1832 5.08949 68.625 6.48153 68.625 9.71307C68.625 12.9588 67.1832 14.3651 64.4489 14.3651H62.4957ZM89.9516 4.99006H94.4048V17H97.4445V4.99006H101.898V2.45455H89.9516V4.99006ZM103.465 17H113.295V14.4645H106.54V10.9915H112.762V8.45597H106.54V4.99006H113.266V2.45455H103.465V17ZM115.311 17H125.141V14.4645H118.386V10.9915H124.608V8.45597H118.386V4.99006H125.112V2.45455H115.311V17ZM136.802 7.15625H139.927C139.529 4.27983 136.994 2.25568 133.705 2.25568C129.863 2.25568 126.901 5.02557 126.901 9.74148C126.901 14.3438 129.671 17.1989 133.769 17.1989C137.441 17.1989 140.062 14.8764 140.062 11.0483V9.21591H133.975V11.5312H137.1C137.058 13.3352 135.829 14.4787 133.784 14.4787C131.475 14.4787 130.019 12.7528 130.019 9.71307C130.019 6.6875 131.532 4.97585 133.755 4.97585C135.339 4.97585 136.411 5.79261 136.802 7.15625ZM141.972 2.45455V17H144.955V7.49716H145.076L148.84 16.929H150.871L154.635 7.53267H154.756V17H157.739V2.45455H153.946L149.941 12.2273H149.77L145.765 2.45455H141.972ZM162.38 17L163.459 13.6832H168.708L169.788 17H173.083L168.069 2.45455H164.106L159.084 17H162.38ZM164.241 11.2827L166.03 5.77841H166.144L167.934 11.2827H164.241ZM186.6 2.45455H183.539V11.6023H183.411L177.133 2.45455H174.434V17H177.509V7.84517H177.616L183.944 17H186.6V2.45455ZM196.631 6.63778H199.579C199.536 4.04545 197.406 2.25568 194.167 2.25568C190.978 2.25568 188.641 4.01705 188.656 6.65909C188.648 8.80398 190.161 10.0327 192.619 10.6222L194.202 11.0199C195.786 11.4034 196.667 11.858 196.674 12.8381C196.667 13.9034 195.658 14.6278 194.096 14.6278C192.498 14.6278 191.347 13.8892 191.248 12.4332H188.272C188.35 15.5795 190.602 17.206 194.131 17.206C197.683 17.206 199.771 15.5085 199.778 12.8452C199.771 10.4233 197.945 9.13778 195.417 8.5696L194.11 8.2571C192.846 7.96591 191.788 7.49716 191.809 6.45312C191.809 5.51562 192.64 4.8267 194.146 4.8267C195.616 4.8267 196.518 5.49432 196.631 6.63778ZM229.474 2.45455V11.6378C229.474 13.2997 228.31 14.5 226.52 14.5C224.737 14.5 223.565 13.2997 223.565 11.6378V2.45455H220.49V11.9006C220.49 15.0824 222.891 17.206 226.52 17.206C230.135 17.206 232.55 15.0824 232.55 11.9006V2.45455H229.474ZM234.68 17H244.509V14.4645H237.755V10.9915H243.977V8.45597H237.755V4.99006H244.481V2.45455H234.68V17ZM246.526 17H249.601V11.8438H251.846L254.601 17H257.996L254.907 11.3466C256.561 10.6364 257.478 9.1946 257.478 7.20597C257.478 4.31534 255.567 2.45455 252.265 2.45455H246.526V17ZM249.601 9.37216V4.96875H251.675C253.451 4.96875 254.31 5.7571 254.31 7.20597C254.31 8.64773 253.451 9.37216 251.689 9.37216H249.601ZM259.251 17H262.326V11.8438H264.571L267.326 17H270.721L267.632 11.3466C269.286 10.6364 270.203 9.1946 270.203 7.20597C270.203 4.31534 268.292 2.45455 264.99 2.45455H259.251V17ZM262.326 9.37216V4.96875H264.4C266.176 4.96875 267.035 5.7571 267.035 7.20597C267.035 8.64773 266.176 9.37216 264.414 9.37216H262.326ZM271.976 17H281.805V14.4645H275.051V10.9915H281.273V8.45597H275.051V4.99006H281.777V2.45455H271.976V17ZM283.822 17H286.897V11.8438H289.142L291.897 17H295.292L292.203 11.3466C293.858 10.6364 294.774 9.1946 294.774 7.20597C294.774 4.31534 292.863 2.45455 289.561 2.45455H283.822V17ZM286.897 9.37216V4.96875H288.971C290.747 4.96875 291.606 5.7571 291.606 7.20597C291.606 8.64773 290.747 9.37216 288.985 9.37216H286.897ZM309.913 9.72727C309.913 4.96875 306.959 2.25568 303.102 2.25568C299.225 2.25568 296.291 4.96875 296.291 9.72727C296.291 14.4645 299.225 17.1989 303.102 17.1989C306.959 17.1989 309.913 14.4858 309.913 9.72727ZM306.796 9.72727C306.796 12.8097 305.333 14.4787 303.102 14.4787C300.865 14.4787 299.409 12.8097 299.409 9.72727C299.409 6.64489 300.865 4.97585 303.102 4.97585C305.333 4.97585 306.796 6.64489 306.796 9.72727Z" fill="#BFBFBF"/>
</svg>
