<svg width="43" height="20" viewBox="0 0 43 20" fill="none" xmlns="http://www.w3.org/2000/svg">
<path d="M3.77131 17L4.85085 13.6832H10.0994L11.179 17H14.4744L9.46023 2.45455H5.49716L0.475852 17H3.77131ZM5.6321 11.2827L7.42188 5.77841H7.53551L9.32528 11.2827H5.6321ZM23.3837 6.63778H26.3312C26.2886 4.04545 24.1579 2.25568 20.9192 2.25568C17.7303 2.25568 15.3937 4.01705 15.4079 6.65909C15.4008 8.80398 16.9136 10.0327 19.371 10.6222L20.9548 11.0199C22.5386 11.4034 23.4192 11.858 23.4264 12.8381C23.4192 13.9034 22.4107 14.6278 20.8482 14.6278C19.2502 14.6278 18.0996 13.8892 18.0002 12.4332H15.0244C15.1025 15.5795 17.3539 17.206 20.8837 17.206C24.4349 17.206 26.5229 15.5085 26.53 12.8452C26.5229 10.4233 24.6977 9.13778 22.1692 8.5696L20.8624 8.2571C19.5982 7.96591 18.54 7.49716 18.5613 6.45312C18.5613 5.51562 19.3923 4.8267 20.8979 4.8267C22.3681 4.8267 23.2701 5.49432 23.3837 6.63778ZM37.8435 7.15625H40.9685C40.5707 4.27983 38.0352 2.25568 34.7469 2.25568C30.9045 2.25568 27.9429 5.02557 27.9429 9.74148C27.9429 14.3438 30.7128 17.1989 34.8108 17.1989C38.4827 17.1989 41.1034 14.8764 41.1034 11.0483V9.21591H35.0168V11.5312H38.1418C38.0991 13.3352 36.8705 14.4787 34.825 14.4787C32.5168 14.4787 31.0608 12.7528 31.0608 9.71307C31.0608 6.6875 32.5736 4.97585 34.7966 4.97585C36.3804 4.97585 37.4528 5.79261 37.8435 7.15625Z" fill="#202020"/>
</svg>
